<svg class="me-2" width="24" height="24" viewBox="0 0 24 24" fill="#4D4354" xmlns="http://www.w3.org/2000/svg">
								<path d="M6.81172 8.09737C6.4567 7.74235 6.4567 7.16674 6.81172 6.81172L11.3572 2.26627C11.7122 1.91124 12.2878 1.91124 12.6428 2.26627L17.1883 6.81172C17.5433 7.16674 17.5433 7.74235 17.1883 8.09737C16.8333 8.45239 16.2577 8.45239 15.9026 8.09737L12.9091 5.10383L12.9091 15.6364C12.9091 16.1384 12.5021 16.5455 12 16.5455C11.4979 16.5455 11.0909 16.1384 11.0909 15.6364L11.0909 5.10383L8.09737 8.09737C7.74235 8.45239 7.16674 8.45239 6.81172 8.09737Z"></path>
								<path d="M2.90909 14.7273C3.41117 14.7273 3.81818 15.1343 3.81818 15.6364V19.2727C3.81818 19.7748 4.2252 20.1818 4.72727 20.1818H19.2727C19.7748 20.1818 20.1818 19.7748 20.1818 19.2727V15.6364C20.1818 15.1343 20.5888 14.7273 21.0909 14.7273C21.593 14.7273 22 15.1343 22 15.6364V19.2727C22 20.779 20.779 22 19.2727 22H4.72727C3.22104 22 2 20.779 2 19.2727V15.6364C2 15.1343 2.40701 14.7273 2.90909 14.7273Z"></path>
							</svg>