 <svg
    className="me-2"
    width="24"
    height="24"
    viewBox="0 0 24 24"
    fill="none"
    xmlns="http://www.w3.org/2000/svg"
    >
    <path
        d="M11.0909 13.4416V2.90909C11.0909 2.40701 11.4979 2 12 2C12.5021 2 12.9091 2.40701 12.9091 2.90909V13.4416L15.9026 10.4481C16.2577 10.0931 16.8333 10.0931 17.1883 10.4481C17.5433 10.8031 17.5433 11.3787 17.1883 11.7337L12.6428 16.2792C12.2878 16.6342 11.7122 16.6342 11.3572 16.2792L6.81172 11.7337C6.4567 11.3787 6.4567 10.8031 6.81172 10.4481C7.16674 10.0931 7.74235 10.0931 8.09737 10.4481L11.0909 13.4416Z"
        fill="#4D4354"
    />
    <path
        d="M2.90909 14.7273C3.41117 14.7273 3.81818 15.1343 3.81818 15.6364V19.2727C3.81818 19.7748 4.2252 20.1818 4.72727 20.1818H19.2727C19.7748 20.1818 20.1818 19.7748 20.1818 19.2727V15.6364C20.1818 15.1343 20.5888 14.7273 21.0909 14.7273C21.593 14.7273 22 15.1343 22 15.6364V19.2727C22 20.779 20.779 22 19.2727 22H4.72727C3.22104 22 2 20.779 2 19.2727V15.6364C2 15.1343 2.40701 14.7273 2.90909 14.7273Z"
        fill="#4D4354"
    />
    </svg>