<svg width="52" height="52" viewBox="0 0 52 52" fill="none" xmlns="http://www.w3.org/2000/svg">
<g clip-path="url(#clip0_35543_212234)">
<path d="M51.9271 25.7351C52.0709 29.192 51.5477 32.6438 50.3863 35.9025C49.0786 39.1093 46.5076 41.519 44.1336 43.9287C41.7889 46.3122 38.9853 48.1954 35.8922 49.4647C32.8468 50.7458 29.7026 51.9818 26.2088 51.9818C22.7824 52.1102 19.3639 51.562 16.1492 50.3696C12.9855 48.9747 10.1228 46.9789 7.71988 44.4931C5.35858 41.9752 3.50585 39.0249 2.26435 35.8038C0.879355 32.6232 0.125022 29.2035 0.0429688 25.7351C0.0429688 22.1878 1.52983 18.981 2.79274 15.8994C3.94029 12.7049 5.70582 9.76763 7.98864 7.2549C10.3349 4.77666 13.1477 2.78559 16.2657 1.39663C19.3112 0.115492 22.7063 0.0259079 26.2088 0.0259079C28.8067 -0.093406 31.4067 0.199924 33.9126 0.894798C33.4334 1.7189 33.1829 2.65597 33.1873 3.60929C33.1888 5.28484 34.1251 6.81927 35.6148 7.58668C35.1974 8.27878 34.9778 9.07156 34.9785 9.87981C34.9785 12.3533 36.9839 14.3586 39.4578 14.3586C39.4843 14.3586 39.4578 14.9501 39.4578 15.2545C39.4578 17.7284 41.4631 19.7333 43.9366 19.7333C44.7448 19.7345 45.5376 19.5145 46.2297 19.0975C46.9971 20.5867 48.5316 21.5234 50.2071 21.525C50.8164 21.5306 51.4042 21.2995 51.8466 20.8801C52.017 22.493 52.044 24.1178 51.9271 25.7351Z" fill="#FFC329"/>
<path d="M27.8131 9.87971C27.8131 12.3532 25.8082 14.3585 23.3343 14.3585C20.8608 14.3585 18.8555 12.3532 18.8555 9.87971C18.8555 7.40583 20.8608 5.40088 23.3343 5.40088C25.8082 5.40088 27.8131 7.40583 27.8131 9.87971Z" fill="#7F5F4A"/>
<path d="M43.9346 27.7952C43.9346 30.2691 41.9293 32.2741 39.4558 32.2741C36.9819 32.2741 34.9766 30.2691 34.9766 27.7952C34.9766 25.3218 36.9819 23.3164 39.4558 23.3164C41.9293 23.3164 43.9346 25.3218 43.9346 27.7952Z" fill="#7F5F4A"/>
<path d="M18.8526 33.1702C18.8526 35.6441 16.8472 37.6495 14.3734 37.6495C11.8999 37.6495 9.89453 35.6441 9.89453 33.1702C9.89453 30.6968 11.8999 28.6914 14.3734 28.6914C16.8472 28.6914 18.8526 30.6968 18.8526 33.1702Z" fill="#7F5F4A"/>
<path d="M14.3747 22.4209C14.3747 23.905 13.1716 25.1085 11.6875 25.1085C10.2034 25.1085 9 23.905 9 22.4209C9 20.9368 10.2034 19.7334 11.6875 19.7334C13.1716 19.7334 14.3747 20.9368 14.3747 22.4209Z" fill="#7F5F4A"/>
<path d="M26.918 23.3164C26.918 24.8005 25.7146 26.0036 24.2305 26.0036C22.7464 26.0036 21.543 24.8005 21.543 23.3164C21.543 21.8324 22.7464 20.6289 24.2305 20.6289C25.7146 20.6289 26.918 21.8324 26.918 23.3164Z" fill="#7F5F4A"/>
<path d="M34.0817 43.024C34.0817 44.5081 32.8787 45.7111 31.3946 45.7111C29.9105 45.7111 28.707 44.5081 28.707 43.024C28.707 41.5399 29.9105 40.3364 31.3946 40.3364C32.8787 40.3364 34.0817 41.5399 34.0817 43.024Z" fill="#7F5F4A"/>
<path d="M34.083 17.9421C34.083 18.9315 33.2811 19.7334 32.2917 19.7334C31.3023 19.7334 30.5 18.9315 30.5 17.9421C30.5 16.9523 31.3023 16.1504 32.2917 16.1504C33.2811 16.1504 34.083 16.9523 34.083 17.9421Z" fill="#7F5F4A"/>
<path d="M14.376 12.5667C14.376 13.5565 13.5741 14.3584 12.5847 14.3584C11.5953 14.3584 10.793 13.5565 10.793 12.5667C10.793 11.5773 11.5953 10.7754 12.5847 10.7754C13.5741 10.7754 14.376 11.5773 14.376 12.5667Z" fill="#7F5F4A"/>
<path d="M22.4385 43.0241C22.4385 44.0135 21.6366 44.8158 20.6472 44.8158C19.6574 44.8158 18.8555 44.0135 18.8555 43.0241C18.8555 42.0347 19.6574 41.2324 20.6472 41.2324C21.6366 41.2324 22.4385 42.0347 22.4385 43.0241Z" fill="#7F5F4A"/>
<path d="M29.6051 33.17C29.6051 34.6545 28.4021 35.8576 26.918 35.8576C25.4335 35.8576 24.2305 34.6545 24.2305 33.17C24.2305 31.686 25.4335 30.4829 26.918 30.4829C28.4021 30.4829 29.6051 31.686 29.6051 33.17Z" fill="#7F5F4A"/>
<path d="M41.2497 39.4406C41.2497 40.925 40.0466 42.1281 38.5625 42.1281C37.0784 42.1281 35.875 40.925 35.875 39.4406C35.875 37.9565 37.0784 36.7534 38.5625 36.7534C40.0466 36.7534 41.2497 37.9565 41.2497 39.4406Z" fill="#7F5F4A"/>
<path d="M51.9279 25.7351C52.0718 29.192 51.5486 32.6438 50.3871 35.9025C49.0794 39.1093 46.5084 41.519 44.1345 43.9287C41.7898 46.3122 38.9861 48.1954 35.8931 49.4647C34.187 50.2198 32.4298 50.8544 30.6349 51.3638C31.486 51.0502 32.3279 50.7097 33.152 50.3605C36.2451 49.0913 39.0487 47.208 41.3934 44.8245C43.7674 42.4148 46.338 40.0052 47.6461 36.7984C48.8075 33.5396 49.3308 30.0875 49.1869 26.6309C49.3038 25.0136 49.2768 23.3888 49.106 21.7759C48.664 22.1953 48.0762 22.4264 47.4669 22.4208C45.7914 22.4193 44.2569 21.4826 43.4895 19.9933C42.7974 20.4103 42.0042 20.6303 41.1964 20.6292C38.7225 20.6292 36.7172 18.6238 36.7172 16.1503C36.7172 15.8459 36.7441 15.2545 36.7172 15.2545C34.2437 15.2545 32.2383 13.2491 32.2383 10.7757C32.2372 9.96741 32.4572 9.17463 32.8746 8.48253C31.3849 7.71511 30.4482 6.18068 30.4467 4.50513C30.4427 3.55181 30.6932 2.61474 31.1725 1.79064C28.6665 1.09577 26.0665 0.802439 23.4686 0.921753C20.9705 0.840096 18.4709 1.03552 16.0156 1.50405C16.0961 1.46838 16.1857 1.43231 16.2665 1.39663C19.312 0.115492 22.7071 0.0259079 26.2096 0.0259079C28.8076 -0.093406 31.4075 0.199924 33.9135 0.894798C33.4343 1.7189 33.1837 2.65597 33.1881 3.60929C33.1897 5.28484 34.126 6.81927 35.6156 7.58668C35.1982 8.27878 34.9786 9.07156 34.9794 9.87981C34.9794 12.3533 36.9847 14.3586 39.4586 14.3586C39.4852 14.3586 39.4586 14.9501 39.4586 15.2545C39.4586 17.7284 41.464 19.7333 43.9374 19.7333C44.7457 19.7345 45.5385 19.5145 46.2306 19.0975C46.998 20.5867 48.5324 21.5234 50.208 21.525C50.8172 21.5306 51.4051 21.2995 51.8474 20.8801C52.0179 22.493 52.0448 24.1178 51.9279 25.7351Z" fill="#F8AA24"/>
<path d="M18.855 33.17C18.8554 34.9038 17.8553 36.4822 16.2876 37.2223C14.7195 37.962 12.8652 37.7305 11.5273 36.6277C11.8738 36.7109 12.2286 36.753 12.5845 36.7534C14.4753 36.7541 16.1631 35.567 16.8017 33.7876C17.4407 32.0078 16.8929 30.0183 15.433 28.8164C17.4399 29.3067 18.8531 31.104 18.855 33.17Z" fill="#704E3C"/>
<path d="M43.9371 27.7955C43.9375 29.5293 42.9374 31.1077 41.3696 31.8474C39.8015 32.5874 37.9476 32.3559 36.6094 31.2532C36.9558 31.3364 37.3106 31.3784 37.6666 31.3788C39.5573 31.3792 41.2452 30.1924 41.8838 28.4126C42.5227 26.6332 41.9749 24.6438 40.515 23.4419C42.5223 23.9322 43.9351 25.7295 43.9371 27.7955Z" fill="#704E3C"/>
<path d="M27.8117 9.87945C27.8125 11.6133 26.8124 13.1917 25.2442 13.9314C23.6765 14.6714 21.8222 14.4399 20.4844 13.3372C20.8304 13.42 21.1852 13.462 21.5412 13.4624C23.4323 13.4632 25.1198 12.2764 25.7588 10.4966C26.3973 8.71683 25.8495 6.72774 24.39 5.52588C26.397 6.01582 27.8097 7.81345 27.8117 9.87945Z" fill="#704E3C"/>
<path d="M26.9182 23.3166C26.9182 24.8007 25.7147 26.0037 24.2306 26.0037C23.292 26.0093 22.4203 25.5189 21.9375 24.7138C22.3573 24.9731 22.8413 25.1094 23.3348 25.1083C24.8189 25.1083 26.0223 23.9048 26.0223 22.4207C26.0235 21.9272 25.8871 21.4432 25.6279 21.0234C26.433 21.5058 26.9233 22.3779 26.9182 23.3166Z" fill="#704E3C"/>
<path d="M29.6057 33.1701C29.6057 34.6546 28.4026 35.8576 26.9185 35.8576C25.9799 35.8632 25.1078 35.3724 24.625 34.5678C25.0452 34.8266 25.5292 34.9634 26.0227 34.9618C27.5068 34.9618 28.7098 33.7587 28.7098 32.2742C28.7114 31.7811 28.575 31.2971 28.3158 30.877C29.1209 31.3598 29.6112 32.2314 29.6057 33.1701Z" fill="#704E3C"/>
<path d="M34.0857 43.0241C34.0857 44.5082 32.8827 45.7112 31.3986 45.7112C30.4599 45.7168 29.5883 45.2264 29.1055 44.4214C29.5252 44.6806 30.0092 44.817 30.5027 44.8158C31.9868 44.8158 33.1903 43.6123 33.1903 42.1282C33.1915 41.6347 33.0551 41.1507 32.7959 40.731C33.6009 41.2134 34.0913 42.0854 34.0857 43.0241Z" fill="#704E3C"/>
<path d="M41.2498 39.4406C41.2498 40.9251 40.0467 42.1281 38.5627 42.1281C37.624 42.1337 36.7519 41.6433 36.2695 40.8383C36.6893 41.0971 37.1733 41.2339 37.6668 41.2323C39.1509 41.2323 40.354 40.0292 40.354 38.5447C40.3555 38.0516 40.2192 37.5676 39.9599 37.1475C40.765 37.6303 41.2553 38.5019 41.2498 39.4406Z" fill="#704E3C"/>
<path d="M14.3748 22.4206C14.3748 23.9047 13.1717 25.1081 11.6877 25.1081C10.749 25.1133 9.87734 24.6229 9.39453 23.8178C9.81431 24.0771 10.2983 24.2134 10.7918 24.2123C12.2759 24.2123 13.4793 23.0088 13.4793 21.5247C13.4805 21.0312 13.3442 20.5472 13.0849 20.1274C13.89 20.6102 14.3803 21.4819 14.3748 22.4206Z" fill="#704E3C"/>
<path d="M34.0857 17.9419C34.0821 18.783 33.4931 19.5084 32.6702 19.6852C31.8477 19.862 31.0129 19.4422 30.6641 18.6764C30.8936 18.7842 31.1449 18.8393 31.3986 18.8377C32.3868 18.8346 33.1871 18.0342 33.1903 17.046C33.1922 16.7919 33.1371 16.541 33.0289 16.3115C33.6711 16.6001 34.0845 17.2379 34.0857 17.9419Z" fill="#704E3C"/>
<path d="M22.4373 43.0239C22.4337 43.8655 21.8447 44.5908 21.0218 44.7672C20.1993 44.944 19.3644 44.5243 19.0156 43.7584C19.2451 43.8666 19.4961 43.9217 19.7501 43.9198C20.7383 43.9166 21.5387 43.1163 21.5414 42.1281C21.5434 41.8744 21.4883 41.6231 21.3805 41.3936C22.0223 41.6821 22.4361 42.3199 22.4373 43.0239Z" fill="#704E3C"/>
<path d="M14.3748 12.567C14.3712 13.4085 13.7822 14.1339 12.9593 14.3107C12.1368 14.4871 11.3019 14.0673 10.9531 13.3019C11.1826 13.4097 11.4339 13.4648 11.6876 13.4628C12.6758 13.46 13.4762 12.6597 13.4793 11.6715C13.4813 11.4174 13.4262 11.1665 13.318 10.937C13.9602 11.2256 14.3736 11.8634 14.3748 12.567Z" fill="#704E3C"/>
<path d="M38.5638 28.6914C38.0691 28.6914 37.668 28.2903 37.668 27.7956C37.668 26.8062 38.4699 26.0039 39.4597 26.0039C39.9544 26.0039 40.3551 26.4051 40.3551 26.8998C40.3551 27.3944 39.9544 27.7956 39.4597 27.7956C39.4597 28.2903 39.0585 28.6914 38.5638 28.6914Z" fill="#A38671"/>
<path d="M13.4818 34.066C12.9871 34.066 12.5859 33.6649 12.5859 33.1702C12.5859 32.1808 13.3878 31.3789 14.3772 31.3789C14.8723 31.3789 15.2731 31.7797 15.2731 32.2744C15.2731 32.7694 14.8723 33.1702 14.3772 33.1702C14.3772 33.6649 13.9765 34.066 13.4818 34.066Z" fill="#A38671"/>
<path d="M22.4388 10.7754C21.9441 10.7754 21.543 10.3743 21.543 9.87958C21.543 8.89019 22.3453 8.08789 23.3347 8.08789C23.8294 8.08789 24.2305 8.48904 24.2305 8.98374C24.2305 9.47843 23.8294 9.87958 23.3347 9.87958C23.3347 10.3743 22.9335 10.7754 22.4388 10.7754Z" fill="#A38671"/>
</g>
<defs>
<clipPath id="clip0_35543_212234">
<rect width="52" height="52" fill="white"/>
</clipPath>
</defs>
</svg>
